<svg xmlns="http://www.w3.org/2000/svg" width="130pt" height="130pt" viewBox="0 0 500.000000 500.000000" preserveAspectRatio="xMidYMid meet">
  <g transform="translate(0.000000,500.000000) scale(0.100000,-0.100000)" fill="#000000" stroke="none">
    <path d="M2303 2691 c-80 -21 -93 -47 -93 -196 0 -159 25 -188 165 -188 143 0 166 28 164 197 -1 125 -7 146 -46 168 -35 21 -142 31 -190 19z m101 -97 c13 -5 16 -23 16 -95 0 -88 0 -89 -27 -95 -46 -12 -58 5 -61 90 -4 98 14 122 72 100z"/>
    <path fill="#0074E4" d="M1214 2675 c-3 -7 -4 -28 -2 -47 3 -29 7 -33 36 -36 l32 -3 0 -89 0 -89 -32 -3 c-29 -3 -33 -7 -36 -36 -5 -54 7 -59 124 -61 116 -2 134 4 134 49 0 23 -26 60 -37 53 -1 -2 -10 -3 -18 -3 -12 0 -15 17 -15 89 l0 90 33 3 c31 3 32 5 32 48 l0 45 -123 2 c-95 1 -124 -1 -128 -12z"/>
    <path fill="#0074E4" d="M1524 2676 c-3 -8 -4 -29 -2 -48 3 -32 5 -33 50 -36 l47 -3 3 -137 3 -137 35 -2 c72 -3 70 -6 70 142 l0 134 48 3 47 3 0 45 0 45 -148 3 c-120 2 -148 0 -153 -12z"/>
    <path d="M1892 2503 l3 -188 52 -3 c48 -3 53 -1 57 20 3 13 5 41 3 63 l-2 40 55 5 55 5 0 40 0 40 -54 5 c-50 5 -55 7 -58 32 l-4 27 78 3 78 3 0 45 0 45 -133 3 -132 3 2 -188z"/>
    <path d="M2612 2503 l3 -188 53 -3 52 -3 0 60 c0 62 1 63 45 64 53 1 54 -1 57 -60 l3 -58 55 0 55 0 3 74 c3 77 -13 121 -43 121 -17 0 -20 16 -5 25 6 3 10 29 10 56 0 40 -5 55 -25 74 -23 24 -30 25 -145 25 l-120 0 2 -187z m176 60 c3 -32 2 -33 -32 -33 -33 0 -36 3 -36 28 0 36 8 44 40 40 20 -2 26 -9 28 -35z"/>
    <path d="M3000 2527 c0 -159 1 -164 23 -186 46 -42 200 -47 261 -8 33 22 38 53 34 217 l-3 135 -51 3 c-63 4 -64 3 -64 -160 0 -65 -3 -118 -7 -118 -5 0 -17 -3 -29 -6 -13 -3 -28 1 -38 11 -13 14 -16 39 -16 146 l0 129 -55 0 -55 0 0 -163z"/>
    <path d="M3402 2503 l3 -188 50 0 50 0 5 100 5 100 22 -37 c14 -24 30 -38 42 -38 20 0 24 3 61 50 l19 25 1 -103 0 -103 53 3 52 3 3 188 2 187 -59 0 -59 0 -28 -55 c-16 -30 -33 -55 -39 -55 -5 1 -23 24 -40 53 l-30 52 -58 3 -57 3 2 -188z"/>
  </g>
</svg>
